<mxfile host="app.diagrams.net" agent="Mozilla/5.0 (Windows NT 10.0; Win64; x64) AppleWebKit/537.36 (KHTML, like Gecko) Chrome/136.0.0.0 Safari/537.36" version="27.0.2">
  <diagram name="Page-1" id="sY2Tgj9hUj45W0wExzb8">
    <mxGraphModel dx="786" dy="497" grid="1" gridSize="10" guides="1" tooltips="1" connect="1" arrows="1" fold="1" page="1" pageScale="1" pageWidth="850" pageHeight="1100" math="0" shadow="0">
      <root>
        <mxCell id="0" />
        <mxCell id="1" parent="0" />
        <mxCell id="ivitRFmN18gmp0dPSzTb-10" value="" style="endArrow=none;html=1;rounded=0;" edge="1" parent="1">
          <mxGeometry width="50" height="50" relative="1" as="geometry">
            <mxPoint x="350.5" y="466" as="sourcePoint" />
            <mxPoint x="350" y="326" as="targetPoint" />
          </mxGeometry>
        </mxCell>
        <mxCell id="ivitRFmN18gmp0dPSzTb-9" value="" style="endArrow=none;html=1;rounded=0;" edge="1" parent="1">
          <mxGeometry width="50" height="50" relative="1" as="geometry">
            <mxPoint x="260" y="420" as="sourcePoint" />
            <mxPoint x="260" y="330" as="targetPoint" />
          </mxGeometry>
        </mxCell>
        <mxCell id="ivitRFmN18gmp0dPSzTb-11" value="" style="endArrow=none;html=1;rounded=0;" edge="1" parent="1">
          <mxGeometry width="50" height="50" relative="1" as="geometry">
            <mxPoint x="181.5" y="370" as="sourcePoint" />
            <mxPoint x="181.5" y="330" as="targetPoint" />
          </mxGeometry>
        </mxCell>
        <mxCell id="mRvTwQiIFe_ORE_sjWmd-1" value="Defined Rules&lt;div&gt;/&lt;/div&gt;&lt;div&gt;Algorithms&lt;/div&gt;&lt;div&gt;/&lt;/div&gt;&lt;div&gt;Functions&lt;/div&gt;" style="whiteSpace=wrap;html=1;aspect=fixed;fillColor=light-dark(#34c3ca, #1f2f1e);strokeColor=#82b366;" parent="1" vertex="1">
          <mxGeometry x="190" y="30" width="80" height="80" as="geometry" />
        </mxCell>
        <mxCell id="mRvTwQiIFe_ORE_sjWmd-3" value="" style="endArrow=classic;html=1;rounded=0;" parent="1" edge="1">
          <mxGeometry width="50" height="50" relative="1" as="geometry">
            <mxPoint x="120" y="50" as="sourcePoint" />
            <mxPoint x="190" y="50" as="targetPoint" />
          </mxGeometry>
        </mxCell>
        <mxCell id="mRvTwQiIFe_ORE_sjWmd-4" value="" style="endArrow=classic;html=1;rounded=0;" parent="1" edge="1">
          <mxGeometry width="50" height="50" relative="1" as="geometry">
            <mxPoint x="120" y="90" as="sourcePoint" />
            <mxPoint x="190" y="90" as="targetPoint" />
          </mxGeometry>
        </mxCell>
        <mxCell id="mRvTwQiIFe_ORE_sjWmd-5" value="Input" style="text;html=1;align=center;verticalAlign=middle;whiteSpace=wrap;rounded=0;" parent="1" vertex="1">
          <mxGeometry x="130" y="30" width="30" height="20" as="geometry" />
        </mxCell>
        <mxCell id="mRvTwQiIFe_ORE_sjWmd-7" value="Algorithm" style="text;html=1;align=center;verticalAlign=middle;whiteSpace=wrap;rounded=0;" parent="1" vertex="1">
          <mxGeometry x="137" y="72" width="30" height="20" as="geometry" />
        </mxCell>
        <mxCell id="mRvTwQiIFe_ORE_sjWmd-8" value="" style="endArrow=classic;html=1;rounded=0;" parent="1" edge="1">
          <mxGeometry width="50" height="50" relative="1" as="geometry">
            <mxPoint x="270" y="69.5" as="sourcePoint" />
            <mxPoint x="340" y="69.5" as="targetPoint" />
          </mxGeometry>
        </mxCell>
        <mxCell id="mRvTwQiIFe_ORE_sjWmd-9" value="Output" style="text;html=1;align=center;verticalAlign=middle;whiteSpace=wrap;rounded=0;" parent="1" vertex="1">
          <mxGeometry x="291" y="52" width="30" height="20" as="geometry" />
        </mxCell>
        <mxCell id="mRvTwQiIFe_ORE_sjWmd-10" value="Algorithm&lt;div&gt;/&lt;/div&gt;&lt;div&gt;Machine Learning&lt;/div&gt;" style="whiteSpace=wrap;html=1;aspect=fixed;fillColor=light-dark(#34c3ca, #1f2f1e);strokeColor=#82b366;" parent="1" vertex="1">
          <mxGeometry x="190" y="180" width="80" height="80" as="geometry" />
        </mxCell>
        <mxCell id="mRvTwQiIFe_ORE_sjWmd-11" value="" style="endArrow=classic;html=1;rounded=0;" parent="1" edge="1">
          <mxGeometry width="50" height="50" relative="1" as="geometry">
            <mxPoint x="120" y="200" as="sourcePoint" />
            <mxPoint x="190" y="200" as="targetPoint" />
          </mxGeometry>
        </mxCell>
        <mxCell id="mRvTwQiIFe_ORE_sjWmd-12" value="" style="endArrow=classic;html=1;rounded=0;" parent="1" edge="1">
          <mxGeometry width="50" height="50" relative="1" as="geometry">
            <mxPoint x="120" y="240" as="sourcePoint" />
            <mxPoint x="190" y="240" as="targetPoint" />
          </mxGeometry>
        </mxCell>
        <mxCell id="mRvTwQiIFe_ORE_sjWmd-13" value="Input" style="text;html=1;align=center;verticalAlign=middle;whiteSpace=wrap;rounded=0;" parent="1" vertex="1">
          <mxGeometry x="130" y="180" width="30" height="20" as="geometry" />
        </mxCell>
        <mxCell id="mRvTwQiIFe_ORE_sjWmd-14" value="Output" style="text;html=1;align=center;verticalAlign=middle;whiteSpace=wrap;rounded=0;" parent="1" vertex="1">
          <mxGeometry x="137" y="222" width="30" height="20" as="geometry" />
        </mxCell>
        <mxCell id="mRvTwQiIFe_ORE_sjWmd-15" value="" style="endArrow=classic;html=1;rounded=0;" parent="1" edge="1">
          <mxGeometry width="50" height="50" relative="1" as="geometry">
            <mxPoint x="270" y="219.5" as="sourcePoint" />
            <mxPoint x="340" y="219.5" as="targetPoint" />
          </mxGeometry>
        </mxCell>
        <mxCell id="mRvTwQiIFe_ORE_sjWmd-16" value="Model" style="text;html=1;align=center;verticalAlign=middle;whiteSpace=wrap;rounded=0;" parent="1" vertex="1">
          <mxGeometry x="291" y="202" width="30" height="20" as="geometry" />
        </mxCell>
        <mxCell id="mRvTwQiIFe_ORE_sjWmd-17" value="&lt;b&gt;Traditional Programming e.g.&lt;/b&gt;&lt;div&gt;&lt;br&gt;&lt;/div&gt;&lt;div&gt;&lt;span style=&quot;white-space: pre;&quot;&gt;&#x9;&lt;/span&gt;def sum(a, b):&lt;/div&gt;&lt;div&gt;&lt;span style=&quot;white-space: pre;&quot;&gt;&#x9;&lt;/span&gt;&lt;span style=&quot;white-space: pre;&quot;&gt;&#x9;&lt;/span&gt;return a + b&amp;nbsp;&lt;br&gt;&lt;/div&gt;" style="text;html=1;align=left;verticalAlign=middle;whiteSpace=wrap;rounded=0;" parent="1" vertex="1">
          <mxGeometry x="370" y="28" width="240" height="70" as="geometry" />
        </mxCell>
        <mxCell id="mRvTwQiIFe_ORE_sjWmd-18" value="&lt;b&gt;Traditional machine learning e.g.&lt;/b&gt;&lt;div&gt;&lt;br&gt;&lt;/div&gt;&lt;div&gt;Input Data = [(1,2) , (2,3) , (3,4)]&lt;/div&gt;&lt;div&gt;Output Data = [3, 5, 7]&lt;/div&gt;&lt;div&gt;&lt;br&gt;&lt;/div&gt;&lt;div&gt;Model: sum of two numbers&lt;/div&gt;" style="text;html=1;align=left;verticalAlign=middle;whiteSpace=wrap;rounded=0;" parent="1" vertex="1">
          <mxGeometry x="350" y="170" width="240" height="100" as="geometry" />
        </mxCell>
        <mxCell id="ivitRFmN18gmp0dPSzTb-1" value="&lt;b&gt;&lt;font style=&quot;font-size: 20px;&quot;&gt;&amp;nbsp;Types of Machine Learning&lt;/font&gt;&lt;/b&gt;" style="text;html=1;align=left;verticalAlign=middle;whiteSpace=wrap;rounded=0;strokeColor=default;fillColor=light-dark(#34c3ca, #ededed);" vertex="1" parent="1">
          <mxGeometry x="120" y="300" width="270" height="30" as="geometry" />
        </mxCell>
        <mxCell id="ivitRFmN18gmp0dPSzTb-2" value="  Supervised" style="text;whiteSpace=wrap;strokeColor=default;fontStyle=1;fontSize=14;verticalAlign=middle;fillColor=light-dark(#34c3ca, #ededed);" vertex="1" parent="1">
          <mxGeometry x="137" y="366" width="90" height="30" as="geometry" />
        </mxCell>
        <mxCell id="ivitRFmN18gmp0dPSzTb-3" value="  Unsupervised" style="text;whiteSpace=wrap;strokeColor=default;fontStyle=1;fontSize=14;fillColor=light-dark(#34c3ca, #ededed);" vertex="1" parent="1">
          <mxGeometry x="211" y="416" width="110" height="30" as="geometry" />
        </mxCell>
        <mxCell id="ivitRFmN18gmp0dPSzTb-4" value=" Reinforcement Learning" style="text;whiteSpace=wrap;strokeColor=default;fontStyle=1;fontSize=14;fillColor=light-dark(#34c3ca, #ededed);" vertex="1" parent="1">
          <mxGeometry x="260" y="466" width="170" height="30" as="geometry" />
        </mxCell>
      </root>
    </mxGraphModel>
  </diagram>
</mxfile>
